<?xml version="1.0" encoding="UTF-8"?>
<svg version="1.1" xmlns="http://www.w3.org/2000/svg" width="500" height="500">
<path d="M0 0 C165 0 330 0 500 0 C500 165 500 330 500 500 C335 500 170 500 0 500 C0 335 0 170 0 0 Z " fill="#0E0E0E" transform="translate(0,0)"/>
<path d="M0 0 C9.24 0 18.48 0 28 0 C35.81457858 9.83799625 35.81457858 9.83799625 37.57421875 14.37890625 C39.81641478 19.74425904 42.61074648 24.41138911 45.8125 29.25 C46.80655879 30.80787549 47.7973666 32.36782946 48.78515625 33.9296875 C49.29836426 34.73760742 49.81157227 35.54552734 50.34033203 36.37792969 C55.38089231 44.34139209 60.35800567 52.34499349 65.34228516 60.34375 C66.80033621 62.68006744 68.26408377 65.01265944 69.73046875 67.34375 C70.46634086 68.52071142 71.20203857 69.69778191 71.9375 70.875 C72.54464844 71.84179688 73.15179688 72.80859375 73.77734375 73.8046875 C75 76 75 76 75 78 C75.99 78 76.98 78 78 78 C78 52.26 78 26.52 78 0 C85.59 0 93.18 0 101 0 C101 39.93 101 79.86 101 121 C92.75 121 84.5 121 76 121 C68.12580729 111.10499677 68.12580729 111.10499677 66.02734375 106.3203125 C62.86550461 99.53356339 58.99369934 93.32277033 55 87 C53.64303639 84.79989971 52.28884608 82.5980864 50.9375 80.39453125 C47.30152155 74.48606627 43.65322941 68.58530973 40 62.6875 C39.47188721 61.83373779 38.94377441 60.97997559 38.3996582 60.1003418 C36.08227462 56.35489313 33.76001024 52.61289965 31.41796875 48.8828125 C31.03576172 48.27091064 30.65355469 47.65900879 30.25976562 47.02856445 C29.27387351 45.45073302 28.2836284 43.8756237 27.29296875 42.30078125 C26 40 26 40 26 38 C25.01 38 24.02 38 23 38 C23 65.39 23 92.78 23 121 C15.41 121 7.82 121 0 121 C0 81.07 0 41.14 0 0 Z " fill="#FCFCFC" transform="translate(235,192)"/>
<path d="M0 0 C10.23 0 20.46 0 31 0 C35.49937958 11.24844895 35.49937958 11.24844895 37.32739258 16.60327148 C37.73964081 17.80651566 38.15188904 19.00975983 38.57662964 20.24946594 C39.01595163 21.54000124 39.45525152 22.83054406 39.89453125 24.12109375 C40.36384885 25.49330772 40.83342931 26.86543182 41.30325317 28.23747253 C42.29614138 31.13833725 43.28758669 34.03968893 44.27780151 36.94146729 C46.85392858 44.4902896 49.43879753 52.03612038 52.0234375 59.58203125 C52.27970098 60.3304705 52.53596447 61.07890976 52.79999352 61.85002899 C58.07830147 77.26362552 63.43242676 92.65012384 68.83325195 108.02124023 C69.12175018 108.84392899 69.41024841 109.66661774 69.70748901 110.51423645 C70.23700744 112.02384195 70.76785787 113.53298119 71.30032349 115.04154968 C73 119.88787161 73 119.88787161 73 121 C64.42 121 55.84 121 47 121 C45.68 116.936875 44.36 112.87375 43 108.6875 C42.58234375 107.40963623 42.1646875 106.13177246 41.734375 104.81518555 C41.24710938 103.30371948 41.24710938 103.30371948 40.75 101.76171875 C40.41484375 100.73006592 40.0796875 99.69841309 39.734375 98.63549805 C39 96 39 96 39 93 C23.49 93 7.98 93 -8 93 C-8.33 95.31 -8.66 97.62 -9 100 C-9.49265983 101.77386174 -10.03376046 103.53518972 -10.62890625 105.27734375 C-10.91064697 106.11257568 -11.1923877 106.94780762 -11.48266602 107.80834961 C-11.83901123 108.84096924 -12.19535645 109.87358887 -12.5625 110.9375 C-13.696875 114.258125 -14.83125 117.57875 -16 121 C-24.25 121 -32.5 121 -41 121 C-40.18599924 116.11599542 -39.04623309 111.86782356 -37.39453125 107.2578125 C-37.12261459 106.48527634 -36.85069794 105.71274017 -36.57054138 104.91679382 C-35.97221459 103.21794501 -35.37174136 101.51985103 -34.76940918 99.82241821 C-33.08682514 95.07940504 -31.42096199 90.33051997 -29.75390625 85.58203125 C-29.3873996 84.53909409 -29.02089294 83.49615692 -28.64328003 82.4216156 C-25.46420015 73.35986862 -22.33330138 64.28195667 -19.21484375 55.19921875 C-18.96828852 54.48117065 -18.72173328 53.76312256 -18.46770668 53.02331543 C-16.23454992 46.51848454 -14.00385003 40.01281211 -11.77456665 33.50665283 C-10.59801398 30.0729091 -9.42046108 26.63950972 -8.24232674 23.20630836 C-7.59762037 21.32637871 -6.95423839 19.44599503 -6.31089783 17.56559753 C-5.91858475 16.42222427 -5.52627167 15.27885101 -5.12207031 14.10083008 C-4.78314758 13.11133865 -4.44422485 12.12184723 -4.09503174 11.10237122 C-2.78213951 7.38277211 -1.38500745 3.6933532 0 0 Z " fill="#FBFBFB" transform="translate(145,192)"/>
<path d="M0 0 C0.99 0 1.98 0 3 0 C4.65804483 4.92420496 6.31191765 9.84978543 7.9621582 14.77661133 C8.52257361 16.44788172 9.08407138 18.11878962 9.64672852 19.78930664 C10.46144075 22.20882094 11.27207919 24.62966986 12.08203125 27.05078125 C12.32903275 27.78146317 12.57603424 28.51214508 12.83052063 29.26496887 C14.79027646 35.14300297 16.36174663 40.99307097 18 47 C7.11 47 -3.78 47 -15 47 C-13.21689801 39.86759203 -11.49840407 33.05553018 -9.08203125 26.171875 C-8.81992355 25.4119928 -8.55781586 24.6521106 -8.2877655 23.86920166 C-7.46743777 21.49445344 -6.64013359 19.12221053 -5.8125 16.75 C-5.247578 15.11865188 -4.68312154 13.48714246 -4.11914062 11.85546875 C-2.75144549 7.90176872 -1.3774978 3.95029483 0 0 Z " fill="#131313" transform="translate(159,218)"/>
<path d="M0 0 C4.01125177 2.04209181 6.63010473 4.1946253 9 8 C9.87141484 13.1970867 9.59466314 17.71918709 7.375 22.5 C3.51073716 26.5676451 0.05798327 28.1479244 -5.5 28.4375 C-10.00511708 28.26335262 -12.57306918 27.02845049 -16 24 C-18.83290471 20.71979455 -20.25138878 18.23424153 -20.4375 13.9375 C-19.84093023 8.5683721 -18.45632888 6.2787278 -14.4375 2.75 C-9.75765966 -0.60988537 -5.65458685 -0.6340781 0 0 Z " fill="#F8F8F8" transform="translate(380,286)"/>
</svg>
